<svg xmlns="http://www.w3.org/2000/svg" viewBox="0 0 100 100">
  <defs>
    <linearGradient id="grad" x1="0%" y1="0%" x2="100%" y2="100%">
      <stop offset="0%" style="stop-color:#14b8a6;stop-opacity:1" />
      <stop offset="100%" style="stop-color:#06b6d4;stop-opacity:1" />
    </linearGradient>
  </defs>
  
  <!-- Background circle -->
  <circle cx="50" cy="50" r="48" fill="url(#grad)"/>
  
  <!-- Medical cross with heart shape -->
  <path d="M50 25 L50 45 L30 45 L30 55 L50 55 L50 75 L60 75 L60 55 L80 55 L80 45 L60 45 L60 25 Z" fill="white"/>
  
  <!-- Heart accent -->
  <path d="M50 35 C50 35, 45 30, 40 30 C35 30, 32 33, 32 37 C32 42, 50 52, 50 52 C50 52, 68 42, 68 37 C68 33, 65 30, 60 30 C55 30, 50 35, 50 35 Z" fill="white" opacity="0.3"/>
</svg>
